<svg width="370" height="227" viewBox="0 0 370 227" fill="none" xmlns="http://www.w3.org/2000/svg">
<!-- <rect x="20" y="20" width="calc(100% - 20px)" height="calc(100% - 20px)" fill="white" rx="15" ry="15"/> -->
<!-- <rect x="0" y="0" width="100%" height="100%" fill="black" rx="12" ry="12"/> -->
<path d="M11.0785 127.589C11.0785 130.019 9.16852 131.279 7.26852 131.279C5.38852 131.279 3.47851 130.019 3.47851 127.589C3.47851 125.159 5.38852 123.899 7.26852 123.899C8.19852 123.899 9.12852 124.199 9.83852 124.799L10.9785 123.739L10.9785 125.249L10.5685 125.639C10.8885 126.169 11.0785 126.819 11.0785 127.589ZM9.84852 127.589C9.84852 127.189 9.75852 126.839 9.59852 126.549L8.37852 127.699L7.63852 126.839L8.82852 125.729C8.37852 125.449 7.82852 125.299 7.26852 125.299C5.96851 125.299 4.70852 126.099 4.70852 127.589C4.70852 129.089 5.96852 129.879 7.26852 129.879C8.57852 129.879 9.84852 129.089 9.84852 127.589ZM11.0785 121.177C11.0785 122.277 10.3285 122.857 9.25852 122.857L5.67851 122.857L5.67851 121.537L9.03852 121.537C9.61852 121.537 9.97852 121.217 9.97852 120.657C9.97852 119.907 9.31852 119.617 8.67852 119.617L5.67851 119.617L5.67851 118.287L10.9785 118.287L10.9785 119.617L10.2185 119.617L10.2185 119.677C10.5785 119.877 11.0785 120.307 11.0785 121.177ZM5.57851 114.777C5.57851 113.757 6.18851 113.297 6.41851 113.157L6.41851 113.097L5.67851 113.097L5.67851 111.767L10.9785 111.767L10.9785 113.097L10.2385 113.097L10.2385 113.157C10.4685 113.297 11.0785 113.757 11.0785 114.777C11.0785 116.357 9.68851 117.127 8.32851 117.127C6.96851 117.127 5.57851 116.357 5.57851 114.777ZM6.66851 114.427C6.66851 115.337 7.50851 115.787 8.32851 115.787C9.14851 115.787 9.98851 115.337 9.98851 114.427C9.98851 113.527 9.14851 113.077 8.32851 113.077C7.50851 113.077 6.66851 113.527 6.66851 114.427ZM10.9785 109.074L10.9785 110.404L3.37851 110.394L3.37851 109.074L10.9785 109.074ZM4.85851 106.93C4.85851 107.39 4.50851 107.73 4.07851 107.73C3.64851 107.73 3.29851 107.39 3.29851 106.93C3.29851 106.46 3.64851 106.12 4.07851 106.12C4.50851 106.12 4.85851 106.46 4.85851 106.93ZM10.9785 106.26L10.9785 107.59L5.67851 107.59L5.67851 106.26L10.9785 106.26ZM11.0785 102.489C11.0785 103.939 10.1285 104.279 9.31851 104.279L6.74851 104.279L6.74851 105.189L5.67851 105.189L5.67851 104.279L4.35851 104.279L4.35851 102.949L5.67851 102.949L5.67851 101.759L6.74851 101.759L6.74851 102.949L9.28851 102.949C9.75851 102.949 9.99851 102.699 9.99851 102.149C9.99851 101.889 9.94851 101.629 9.94851 101.629L10.9885 101.629C10.9885 101.629 11.0785 102.029 11.0785 102.489ZM12.9285 100.241C12.9285 100.591 12.8885 100.831 12.8885 100.831L11.7985 100.831C11.7985 100.831 11.8285 100.601 11.8285 100.331C11.8285 99.6514 11.6485 99.2414 11.0385 98.9214L5.67851 100.911L5.67851 99.5614L9.45851 98.2414L5.67851 96.9214L5.67851 95.5714L10.8485 97.5114C12.2585 98.0514 12.9285 98.8114 12.9285 100.241Z" fill="white"/>
<path d="M52.1138 66.48H51.1022V63.2629H50.4558V62.4492H51.1022V62.0765C51.1022 61.4681 51.3684 60.6239 52.4712 60.6239C52.7754 60.6239 52.996 60.6923 52.996 60.6923V61.43C52.996 61.43 52.8363 61.392 52.6842 61.392C52.243 61.392 52.1138 61.6658 52.1138 62.0765V62.4492H52.9732V63.2629H52.1138V66.48ZM55.2388 62.3731C56.0146 62.3731 56.3644 62.837 56.4709 63.0119H56.5165V62.4492H57.528V66.48H56.5165V65.9172H56.4709C56.3644 66.0921 56.0146 66.556 55.2388 66.556C54.0372 66.556 53.4516 65.4989 53.4516 64.4646C53.4516 63.4302 54.0372 62.3731 55.2388 62.3731ZM55.505 63.2021C54.8129 63.2021 54.4707 63.8409 54.4707 64.4646C54.4707 65.0882 54.8129 65.7271 55.505 65.7271C56.1895 65.7271 56.5317 65.0882 56.5317 64.4646C56.5317 63.8409 56.1895 63.2021 55.505 63.2021ZM60.1013 66.556C58.4737 66.556 58.3596 65.2251 58.3596 65.2251H59.3179C59.3179 65.2251 59.4016 65.7803 60.1393 65.7803C60.5804 65.7803 60.7553 65.5521 60.7553 65.324C60.7553 65.0958 60.5804 64.9665 60.261 64.8981L59.7058 64.784C59.0365 64.6471 58.4281 64.3505 58.4281 63.6204C58.4281 62.9055 59.0137 62.3731 59.9568 62.3731C61.4474 62.3731 61.5767 63.5976 61.5767 63.5976H60.6488C60.6488 63.5976 60.5652 63.126 59.9415 63.126C59.5232 63.126 59.3559 63.3466 59.3559 63.5519C59.3559 63.7725 59.5689 63.8866 59.8731 63.9474L60.3979 64.0615C61.1432 64.2212 61.6832 64.5634 61.6832 65.2707C61.6832 65.9932 61.1128 66.556 60.1013 66.556ZM64.2277 66.556C63.125 66.556 62.8664 65.8335 62.8664 65.2175V63.2629H62.1743V62.4492H62.8664V61.4452H63.8779V62.4492H64.7829V63.2629H63.8779V65.1947C63.8779 65.5521 64.068 65.7347 64.4863 65.7347C64.6841 65.7347 64.8818 65.6966 64.8818 65.6966V66.4876C64.8818 66.4876 64.5776 66.556 64.2277 66.556ZM66.3009 67.5219H65.8598L66.4682 66.5408C66.1488 66.518 65.9206 66.267 65.9206 65.9476C65.9206 65.6054 66.1868 65.362 66.5215 65.362C66.8713 65.362 67.1451 65.5978 67.1451 65.978C67.1451 66.3051 66.9169 66.6625 66.3618 67.4459L66.3009 67.5219ZM71.9098 64.0767C71.3394 64.0767 71.1417 63.5976 70.8375 63.5976C70.6626 63.5976 70.5941 63.7725 70.5941 64.0387H70.0161C70.0161 63.5519 70.1682 62.9815 70.7919 62.9815C71.3699 62.9815 71.5828 63.4607 71.8642 63.4607C72.0315 63.4607 72.1076 63.301 72.1076 63.0196H72.6856C72.6856 63.5063 72.5335 64.0767 71.9098 64.0767ZM75.746 66.556C74.0804 66.556 73.6773 65.2327 73.6621 64.7764H74.628C74.628 64.7764 74.6888 65.7042 75.7308 65.7042C76.4837 65.7042 76.8487 65.1567 76.8487 64.6015C76.8487 64.0387 76.4761 63.4759 75.7536 63.4759C75.0082 63.4759 74.7953 64.0691 74.7953 64.0691H73.7762L74.2553 60.852H77.4724V61.7571H74.9702L74.7649 63.1488H74.7953C74.9018 63.0348 75.1984 62.6773 75.9589 62.6773C77.191 62.6773 77.8602 63.6128 77.8602 64.5863C77.8602 65.5597 77.1682 66.556 75.746 66.556ZM80.9467 66.5484C79.4789 66.5484 78.6575 65.2327 78.6575 63.6584C78.6575 62.0841 79.4789 60.7684 80.9467 60.7684C82.4145 60.7684 83.2359 62.0841 83.2359 63.6584C83.2359 65.2327 82.4145 66.5484 80.9467 66.5484ZM80.9467 65.6282C81.654 65.6282 82.1712 64.9665 82.1712 63.6584C82.1712 62.3655 81.654 61.7038 80.9467 61.7038C80.2394 61.7038 79.7222 62.3655 79.7222 63.6584C79.7222 64.9589 80.2318 65.6282 80.9467 65.6282ZM86.2125 66.5484C84.7447 66.5484 83.9233 65.2327 83.9233 63.6584C83.9233 62.0841 84.7447 60.7684 86.2125 60.7684C87.6803 60.7684 88.5017 62.0841 88.5017 63.6584C88.5017 65.2327 87.6803 66.5484 86.2125 66.5484ZM86.2125 65.6282C86.9198 65.6282 87.437 64.9665 87.437 63.6584C87.437 62.3655 86.9198 61.7038 86.2125 61.7038C85.5052 61.7038 84.988 62.3655 84.988 63.6584C84.988 64.9589 85.4976 65.6282 86.2125 65.6282ZM90.3299 66.48H89.3184V62.4492H90.3299V63.0119H90.3679C90.52 62.7382 90.8395 62.3731 91.4707 62.3731C92.0715 62.3731 92.4518 62.6849 92.6343 63.1336H92.6495C92.8473 62.7534 93.2351 62.3731 93.9044 62.3731C94.7562 62.3731 95.1821 63.0272 95.1821 63.7953V66.48H94.1706V64.0082C94.1706 63.5443 93.9424 63.2097 93.4937 63.2097C92.9614 63.2097 92.756 63.6964 92.756 64.1375V66.48H91.7445V64.0082C91.7445 63.5443 91.5239 63.2097 91.0676 63.2097C90.5353 63.2097 90.3299 63.704 90.3299 64.1375V66.48ZM97.7492 66.556C96.1216 66.556 96.0075 65.2251 96.0075 65.2251H96.9658C96.9658 65.2251 97.0495 65.7803 97.7872 65.7803C98.2283 65.7803 98.4032 65.5521 98.4032 65.324C98.4032 65.0958 98.2283 64.9665 97.9089 64.8981L97.3537 64.784C96.6844 64.6471 96.076 64.3505 96.076 63.6204C96.076 62.9055 96.6616 62.3731 97.6046 62.3731C99.0953 62.3731 99.2246 63.5976 99.2246 63.5976H98.2967C98.2967 63.5976 98.2131 63.126 97.5894 63.126C97.1711 63.126 97.0038 63.3466 97.0038 63.5519C97.0038 63.7725 97.2168 63.8866 97.521 63.9474L98.0458 64.0615C98.7911 64.2212 99.3311 64.5634 99.3311 65.2707C99.3311 65.9932 98.7607 66.556 97.7492 66.556ZM102.973 66.48H101.961L101.969 60.6999H102.973V66.48ZM105.691 62.3731C106.467 62.3731 106.817 62.837 106.923 63.0119H106.969V62.4492H107.98V66.48H106.969V65.9172H106.923C106.817 66.0921 106.467 66.556 105.691 66.556C104.489 66.556 103.904 65.4989 103.904 64.4646C103.904 63.4302 104.489 62.3731 105.691 62.3731ZM105.957 63.2021C105.265 63.2021 104.923 63.8409 104.923 64.4646C104.923 65.0882 105.265 65.7271 105.957 65.7271C106.642 65.7271 106.984 65.0882 106.984 64.4646C106.984 63.8409 106.642 63.2021 105.957 63.2021ZM110.654 66.556C109.552 66.556 109.293 65.8335 109.293 65.2175V63.2629H108.601V62.4492H109.293V61.4452H110.305V62.4492H111.21V63.2629H110.305V65.1947C110.305 65.5521 110.495 65.7347 110.913 65.7347C111.111 65.7347 111.309 65.6966 111.309 65.6966V66.4876C111.309 66.4876 111.004 66.556 110.654 66.556ZM113.992 66.556C112.616 66.556 111.984 65.4989 111.984 64.4646C111.984 63.4455 112.593 62.3731 113.954 62.3731C115.049 62.3731 115.81 63.1108 115.81 64.4874V64.746H113.004C113.042 65.3012 113.391 65.7575 113.992 65.7575C114.684 65.7575 114.844 65.2099 114.844 65.2099H115.779C115.779 65.2099 115.559 66.556 113.992 66.556ZM113.004 64.0843H114.836C114.806 63.4531 114.418 63.1564 113.947 63.1564C113.429 63.1564 113.057 63.5063 113.004 64.0843ZM117.676 66.48H116.665V62.4492H117.676V63.0272H117.722C117.844 62.8142 118.148 62.3731 118.848 62.3731C119.776 62.3731 120.209 63.0804 120.209 63.8714V66.48H119.198V64.0082C119.198 63.5747 118.962 63.2097 118.467 63.2097C117.897 63.2097 117.676 63.6888 117.676 64.1756V66.48ZM123.121 66.556C121.737 66.556 121.06 65.5065 121.06 64.4646C121.06 63.4302 121.73 62.3731 123.121 62.3731C124.855 62.3731 124.985 63.8866 124.985 63.8866H124.034C124.034 63.8866 123.928 63.1945 123.137 63.1945C122.429 63.1945 122.064 63.7953 122.064 64.4646C122.064 65.1338 122.429 65.7347 123.137 65.7347C123.928 65.7347 124.034 65.0426 124.034 65.0426H124.985C124.985 65.0426 124.855 66.556 123.121 66.556ZM125.94 67.963C125.674 67.963 125.492 67.9326 125.492 67.9326V67.1036C125.492 67.1036 125.667 67.1264 125.872 67.1264C126.389 67.1264 126.701 66.9895 126.944 66.5256L125.431 62.4492H126.458L127.461 65.324L128.465 62.4492H129.492L128.017 66.3811C127.606 67.4535 127.028 67.963 125.94 67.963ZM130.761 67.5219H130.319L130.928 66.5408C130.608 66.518 130.38 66.267 130.38 65.9476C130.38 65.6054 130.646 65.362 130.981 65.362C131.331 65.362 131.605 65.5978 131.605 65.978C131.605 66.3051 131.377 66.6625 130.821 67.4459L130.761 67.5219ZM52.2583 79.556C50.6307 79.556 50.5166 78.2251 50.5166 78.2251H51.4749C51.4749 78.2251 51.5586 78.7803 52.2963 78.7803C52.7374 78.7803 52.9123 78.5521 52.9123 78.324C52.9123 78.0958 52.7374 77.9665 52.418 77.8981L51.8628 77.784C51.1935 77.6471 50.5851 77.3505 50.5851 76.6204C50.5851 75.9055 51.1707 75.3731 52.1138 75.3731C53.6044 75.3731 53.7337 76.5976 53.7337 76.5976H52.8058C52.8058 76.5976 52.7222 76.126 52.0985 76.126C51.6802 76.126 51.5129 76.3466 51.5129 76.5519C51.5129 76.7725 51.7259 76.8866 52.0301 76.9474L52.5549 77.0615C53.3002 77.2212 53.8402 77.5634 53.8402 78.2707C53.8402 78.9932 53.2698 79.556 52.2583 79.556ZM56.3847 79.556C55.282 79.556 55.0234 78.8335 55.0234 78.2175V76.2629H54.3313V75.4492H55.0234V74.4452H56.0349V75.4492H56.9399V76.2629H56.0349V78.1947C56.0349 78.5521 56.225 78.7347 56.6433 78.7347C56.8411 78.7347 57.0388 78.6966 57.0388 78.6966V79.4876C57.0388 79.4876 56.7346 79.556 56.3847 79.556ZM58.8762 79.48H57.8647V75.4492H58.8686V76.0043H58.9066C59.0511 75.6925 59.3401 75.3731 59.9866 75.3731C60.1843 75.3731 60.3364 75.4111 60.3364 75.4111V76.3922C60.3364 76.3922 60.1691 76.3618 59.9562 76.3618C59.2413 76.3618 58.8762 76.7268 58.8762 77.6167V79.48ZM62.7602 79.556C61.3836 79.556 60.7524 78.4989 60.7524 77.4646C60.7524 76.4455 61.3608 75.3731 62.7222 75.3731C63.8174 75.3731 64.5779 76.1108 64.5779 77.4874V77.746H61.7715C61.8095 78.3012 62.1594 78.7575 62.7602 78.7575C63.4523 78.7575 63.612 78.2099 63.612 78.2099H64.5475C64.5475 78.2099 64.3269 79.556 62.7602 79.556ZM61.7715 77.0843H63.6044C63.574 76.4531 63.1861 76.1564 62.7146 76.1564C62.1974 76.1564 61.8248 76.5063 61.7715 77.0843ZM67.1519 75.3731C67.9276 75.3731 68.2775 75.837 68.3839 76.0119H68.4296V75.4492H69.4411V79.48H68.4296V78.9172H68.3839C68.2775 79.0921 67.9276 79.556 67.1519 79.556C65.9502 79.556 65.3646 78.4989 65.3646 77.4646C65.3646 76.4302 65.9502 75.3731 67.1519 75.3731ZM67.4181 76.2021C66.726 76.2021 66.3837 76.8409 66.3837 77.4646C66.3837 78.0882 66.726 78.7271 67.4181 78.7271C68.1025 78.7271 68.4448 78.0882 68.4448 77.4646C68.4448 76.8409 68.1025 76.2021 67.4181 76.2021ZM71.4131 79.48H70.4016V75.4492H71.4131V76.0119H71.4511C71.6033 75.7382 71.9227 75.3731 72.5539 75.3731C73.1547 75.3731 73.535 75.6849 73.7175 76.1336H73.7327C73.9305 75.7534 74.3184 75.3731 74.9876 75.3731C75.8394 75.3731 76.2653 76.0272 76.2653 76.7953V79.48H75.2538V77.0082C75.2538 76.5443 75.0257 76.2097 74.5769 76.2097C74.0446 76.2097 73.8392 76.6964 73.8392 77.1375V79.48H72.8277V77.0082C72.8277 76.5443 72.6072 76.2097 72.1508 76.2097C71.6185 76.2097 71.4131 76.704 71.4131 77.1375V79.48ZM77.8132 74.8255C77.4634 74.8255 77.2048 74.5593 77.2048 74.2323C77.2048 73.9053 77.4634 73.6391 77.8132 73.6391C78.1707 73.6391 78.4293 73.9053 78.4293 74.2323C78.4293 74.5593 78.1707 74.8255 77.8132 74.8255ZM78.3228 79.48H77.3113V75.4492H78.3228V79.48ZM80.385 79.48H79.3735V75.4492H80.385V76.0272H80.4307C80.5524 75.8142 80.8566 75.3731 81.5563 75.3731C82.4841 75.3731 82.9176 76.0804 82.9176 76.8714V79.48H81.9061V77.0082C81.9061 76.5747 81.6703 76.2097 81.176 76.2097C80.6056 76.2097 80.385 76.6888 80.385 77.1756V79.48ZM85.8528 81.0923C84.0503 81.0923 83.9363 79.7234 83.9363 79.7234H84.9249C84.9249 79.7234 85.0314 80.2785 85.8452 80.2785C86.5525 80.2785 86.8491 79.8222 86.8491 79.2366V78.7879H86.8035C86.6438 79.0541 86.2711 79.4343 85.5638 79.4343C84.3698 79.4343 83.7689 78.4152 83.7689 77.4037C83.7689 76.3922 84.3698 75.3731 85.5638 75.3731C86.2711 75.3731 86.6438 75.7534 86.8035 76.0119H86.8491V75.4492H87.8606V79.229C87.8606 80.2785 87.1989 81.0923 85.8528 81.0923ZM85.83 78.6206C86.5145 78.6206 86.8567 78.0122 86.8567 77.4037C86.8567 76.7877 86.5145 76.1869 85.83 76.1869C85.1379 76.1869 84.7881 76.7877 84.7881 77.4037C84.7881 78.0122 85.1379 78.6206 85.83 78.6206ZM92.1863 79.556C90.5587 79.556 90.4446 78.2251 90.4446 78.2251H91.4029C91.4029 78.2251 91.4866 78.7803 92.2243 78.7803C92.6654 78.7803 92.8403 78.5521 92.8403 78.324C92.8403 78.0958 92.6654 77.9665 92.346 77.8981L91.7908 77.784C91.1215 77.6471 90.5131 77.3505 90.5131 76.6204C90.5131 75.9055 91.0987 75.3731 92.0418 75.3731C93.5324 75.3731 93.6617 76.5976 93.6617 76.5976H92.7338C92.7338 76.5976 92.6502 76.126 92.0265 76.126C91.6083 76.126 91.4409 76.3466 91.4409 76.5519C91.4409 76.7725 91.6539 76.8866 91.9581 76.9474L92.4829 77.0615C93.2282 77.2212 93.7682 77.5634 93.7682 78.2707C93.7682 78.9932 93.1978 79.556 92.1863 79.556ZM95.847 79.556C95.0105 79.556 94.5693 78.9856 94.5693 78.1719V75.4492H95.5733V78.0045C95.5733 78.4457 95.8166 78.7194 96.2425 78.7194C96.8129 78.7194 97.0335 78.2175 97.0335 77.7308V75.4492H98.045V79.48H97.0335V78.902H96.9878C96.8357 79.1758 96.5087 79.556 95.847 79.556ZM100.076 80.9706H99.0645V75.4492H100.076V76.0119H100.129C100.236 75.837 100.586 75.3731 101.354 75.3731C102.555 75.3731 103.141 76.4302 103.141 77.4646C103.141 78.4989 102.555 79.556 101.354 79.556C100.586 79.556 100.236 79.0921 100.129 78.9172H100.076V80.9706ZM100.061 77.4646C100.061 78.0882 100.403 78.7271 101.088 78.7271C101.78 78.7271 102.122 78.0882 102.122 77.4646C102.122 76.8409 101.78 76.2021 101.088 76.2021C100.403 76.2021 100.061 76.8409 100.061 77.4646ZM105.082 80.9706H104.07V75.4492H105.082V76.0119H105.135C105.242 75.837 105.591 75.3731 106.36 75.3731C107.561 75.3731 108.147 76.4302 108.147 77.4646C108.147 78.4989 107.561 79.556 106.36 79.556C105.591 79.556 105.242 79.0921 105.135 78.9172H105.082V80.9706ZM105.067 77.4646C105.067 78.0882 105.409 78.7271 106.093 78.7271C106.785 78.7271 107.128 78.0882 107.128 77.4646C107.128 76.8409 106.785 76.2021 106.093 76.2021C105.409 76.2021 105.067 76.8409 105.067 77.4646ZM111.001 79.556C109.67 79.556 108.932 78.5597 108.932 77.4646C108.932 76.3694 109.67 75.3731 111.001 75.3731C112.331 75.3731 113.069 76.3694 113.069 77.4646C113.069 78.5597 112.331 79.556 111.001 79.556ZM111.001 78.7118C111.677 78.7118 112.05 78.1262 112.05 77.4646C112.05 76.8029 111.677 76.2173 111.001 76.2173C110.331 76.2173 109.951 76.8029 109.951 77.4646C109.951 78.1262 110.331 78.7118 111.001 78.7118ZM114.966 79.48H113.954V75.4492H114.958V76.0043H114.996C115.14 75.6925 115.429 75.3731 116.076 75.3731C116.274 75.3731 116.426 75.4111 116.426 75.4111V76.3922C116.426 76.3922 116.258 76.3618 116.046 76.3618C115.331 76.3618 114.966 76.7268 114.966 77.6167V79.48ZM118.965 79.556C117.863 79.556 117.604 78.8335 117.604 78.2175V76.2629H116.912V75.4492H117.604V74.4452H118.616V75.4492H119.521V76.2629H118.616V78.1947C118.616 78.5521 118.806 78.7347 119.224 78.7347C119.422 78.7347 119.619 78.6966 119.619 78.6966V79.4876C119.619 79.4876 119.315 79.556 118.965 79.556Z" fill="white"/>
<path style="mix-blend-mode:screen" d="M287.428 141.597C278.586 138.868 272.06 111.259 272.854 79.9318C273.648 48.6021 281.461 25.421 290.301 28.1501C299.14 30.8795 305.665 58.4863 304.875 89.8155C304.078 121.141 296.268 144.326 287.426 141.595L287.428 141.597Z" fill="url(#paint0_radial_5170_7126)"/>
<path style="mix-blend-mode:color-dodge" d="M286.366 120.98C280.776 119.254 276.653 101.807 277.153 82.0054C277.655 62.2037 282.594 47.5525 288.181 49.2788C293.77 51.0023 297.892 68.452 297.393 88.2533C296.893 108.055 291.954 122.706 286.367 120.98L286.366 120.98Z" fill="url(#paint1_radial_5170_7126)"/>
<path style="mix-blend-mode:screen" d="M287.428 141.597C285.568 141.025 284.701 115.162 285.493 83.8328C286.287 52.5031 288.441 27.5755 290.302 28.1504C292.161 28.7255 293.027 54.5835 292.237 85.9151C291.444 117.242 289.289 142.172 287.428 141.597Z" fill="url(#paint2_radial_5170_7126)"/>
<path style="mix-blend-mode:color-dodge" d="M287.957 120.723C286.778 120.361 286.234 104.016 286.734 84.2144C287.233 64.4132 288.596 48.6573 289.772 49.0223C290.948 49.3826 291.498 65.732 290.994 85.5291C290.492 105.331 289.135 121.086 287.957 120.723Z" fill="url(#paint3_radial_5170_7126)"/>
<path d="M225.665 9.46509H224.608L223.11 5.43426H224.136L225.148 8.30908L226.144 5.43426H227.171L225.665 9.46509ZM229.608 9.54114C228.232 9.54114 227.6 8.484 227.6 7.44967C227.6 6.43056 228.209 5.35821 229.57 5.35821C230.665 5.35821 231.426 6.09592 231.426 7.47249V7.73107H228.62C228.658 8.28626 229.007 8.74258 229.608 8.74258C230.3 8.74258 230.46 8.195 230.46 8.195H231.395C231.395 8.195 231.175 9.54114 229.608 9.54114ZM228.62 7.06941H230.452C230.422 6.43816 230.034 6.14156 229.563 6.14156C229.045 6.14156 228.673 6.4914 228.62 7.06941ZM233.322 9.46509H232.311V5.43426H233.315V5.98945H233.353C233.497 5.67763 233.786 5.35821 234.433 5.35821C234.63 5.35821 234.782 5.39623 234.782 5.39623V6.37732C234.782 6.37732 234.615 6.3469 234.402 6.3469C233.687 6.3469 233.322 6.71196 233.322 7.60178V9.46509ZM235.778 10.9481C235.512 10.9481 235.329 10.9177 235.329 10.9177V10.0887C235.329 10.0887 235.504 10.1115 235.71 10.1115C236.227 10.1115 236.539 9.97465 236.782 9.51072L235.268 5.43426H236.295L237.299 8.30908L238.303 5.43426H239.33L237.854 9.36622C237.444 10.4386 236.866 10.9481 235.778 10.9481ZM242.845 9.46509H241.834V3.68503H242.845V6.01227H242.891C243.013 5.79932 243.317 5.35821 244.017 5.35821C244.944 5.35821 245.378 6.0655 245.378 6.85646V9.46509H244.366V6.99335C244.366 6.55985 244.131 6.19479 243.636 6.19479C243.066 6.19479 242.845 6.67393 242.845 7.16067V9.46509ZM246.927 4.81062C246.577 4.81062 246.318 4.54444 246.318 4.21741C246.318 3.89038 246.577 3.62419 246.927 3.62419C247.284 3.62419 247.543 3.89038 247.543 4.21741C247.543 4.54444 247.284 4.81062 246.927 4.81062ZM247.436 9.46509H246.425V5.43426H247.436V9.46509ZM250.51 11.0774C248.707 11.0774 248.593 9.70846 248.593 9.70846H249.582C249.582 9.70846 249.688 10.2636 250.502 10.2636C251.21 10.2636 251.506 9.80733 251.506 9.22172V8.773H251.46C251.301 9.03919 250.928 9.41946 250.221 9.41946C249.027 9.41946 248.426 8.40034 248.426 7.38883C248.426 6.37732 249.027 5.35821 250.221 5.35821C250.928 5.35821 251.301 5.73847 251.46 5.99705H251.506V5.43426H252.518V9.21411C252.518 10.2636 251.856 11.0774 250.51 11.0774ZM250.487 8.60568C251.171 8.60568 251.514 7.99726 251.514 7.38883C251.514 6.7728 251.171 6.17198 250.487 6.17198C249.795 6.17198 249.445 6.7728 249.445 7.38883C249.445 7.99726 249.795 8.60568 250.487 8.60568ZM254.551 9.46509H253.539V3.68503H254.551V6.01227H254.596C254.718 5.79932 255.022 5.35821 255.722 5.35821C256.65 5.35821 257.083 6.0655 257.083 6.85646V9.46509H256.072V6.99335C256.072 6.55985 255.836 6.19479 255.341 6.19479C254.771 6.19479 254.551 6.67393 254.551 7.16067V9.46509ZM263.792 10.9481H262.78V8.90229H262.734C262.628 9.07722 262.278 9.54114 261.502 9.54114C260.301 9.54114 259.715 8.484 259.715 7.44967C259.715 6.41535 260.301 5.35821 261.502 5.35821C262.278 5.35821 262.628 5.82213 262.734 5.99705H262.78V5.43426H263.792V10.9481ZM261.769 8.71216C262.453 8.71216 262.795 8.07331 262.795 7.44967C262.795 6.82604 262.453 6.18719 261.769 6.18719C261.076 6.18719 260.734 6.82604 260.734 7.44967C260.734 8.07331 261.076 8.71216 261.769 8.71216ZM266.089 9.54114C265.253 9.54114 264.812 8.97074 264.812 8.15697V5.43426H265.815V7.98965C265.815 8.43076 266.059 8.70455 266.485 8.70455C267.055 8.70455 267.276 8.2026 267.276 7.71586V5.43426H268.287V9.46509H267.276V8.88708H267.23C267.078 9.16087 266.751 9.54114 266.089 9.54114ZM270.957 5.35821C271.733 5.35821 272.083 5.82213 272.189 5.99705H272.235V5.43426H273.246V9.46509H272.235V8.90229H272.189C272.083 9.07722 271.733 9.54114 270.957 9.54114C269.755 9.54114 269.17 8.484 269.17 7.44967C269.17 6.41535 269.755 5.35821 270.957 5.35821ZM271.223 6.18719C270.531 6.18719 270.189 6.82604 270.189 7.44967C270.189 8.07331 270.531 8.71216 271.223 8.71216C271.908 8.71216 272.25 8.07331 272.25 7.44967C272.25 6.82604 271.908 6.18719 271.223 6.18719ZM275.294 9.46509H274.283L274.29 3.68503H275.294V9.46509ZM276.925 4.81062C276.575 4.81062 276.316 4.54444 276.316 4.21741C276.316 3.89038 276.575 3.62419 276.925 3.62419C277.282 3.62419 277.541 3.89038 277.541 4.21741C277.541 4.54444 277.282 4.81062 276.925 4.81062ZM277.434 9.46509H276.423V5.43426H277.434V9.46509ZM280.302 9.54114C279.2 9.54114 278.941 8.81863 278.941 8.2026V6.24803H278.249V5.43426H278.941V4.43036H279.953V5.43426H280.858V6.24803H279.953V8.17979C279.953 8.53724 280.143 8.71977 280.561 8.71977C280.759 8.71977 280.957 8.68174 280.957 8.68174V9.47269C280.957 9.47269 280.652 9.54114 280.302 9.54114ZM282.012 10.9481C281.745 10.9481 281.563 10.9177 281.563 10.9177V10.0887C281.563 10.0887 281.738 10.1115 281.943 10.1115C282.46 10.1115 282.772 9.97465 283.016 9.51072L281.502 5.43426H282.529L283.533 8.30908L284.537 5.43426H285.563L284.088 9.36622C283.677 10.4386 283.099 10.9481 282.012 10.9481ZM286.832 10.507H286.391L286.999 9.52593C286.68 9.50311 286.452 9.25214 286.452 8.93271C286.452 8.59047 286.718 8.3471 287.052 8.3471C287.402 8.3471 287.676 8.58287 287.676 8.96314C287.676 9.29017 287.448 9.64762 286.893 10.431L286.832 10.507ZM225.003 22.5411C223.376 22.5411 223.262 21.2102 223.262 21.2102H224.22C224.22 21.2102 224.304 21.7654 225.041 21.7654C225.483 21.7654 225.657 21.5372 225.657 21.3091C225.657 21.0809 225.483 20.9516 225.163 20.8832L224.608 20.7691C223.939 20.6322 223.33 20.3356 223.33 19.6055C223.33 18.8906 223.916 18.3582 224.859 18.3582C226.35 18.3582 226.479 19.5827 226.479 19.5827H225.551C225.551 19.5827 225.467 19.1111 224.844 19.1111C224.425 19.1111 224.258 19.3317 224.258 19.537C224.258 19.7576 224.471 19.8717 224.775 19.9325L225.3 20.0466C226.045 20.2063 226.585 20.5485 226.585 21.2558C226.585 21.9783 226.015 22.5411 225.003 22.5411ZM228.444 22.4651H227.433L227.44 16.685H228.444V22.4651ZM231.444 22.5411C230.113 22.5411 229.375 21.5448 229.375 20.4497C229.375 19.3545 230.113 18.3582 231.444 18.3582C232.775 18.3582 233.513 19.3545 233.513 20.4497C233.513 21.5448 232.775 22.5411 231.444 22.5411ZM231.444 21.6969C232.121 21.6969 232.494 21.1113 232.494 20.4497C232.494 19.788 232.121 19.2024 231.444 19.2024C230.775 19.2024 230.395 19.788 230.395 20.4497C230.395 21.1113 230.775 21.6969 231.444 21.6969ZM236.288 22.4651H235.208L233.946 18.4343H234.957L235.763 21.2026L236.623 18.4343H237.543L238.402 21.2026L239.209 18.4343H240.22L238.95 22.4651H237.878L237.087 19.9021L236.288 22.4651ZM241.49 23.507H241.048L241.657 22.5259C241.337 22.5031 241.109 22.2521 241.109 21.9327C241.109 21.5905 241.375 21.3471 241.71 21.3471C242.06 21.3471 242.334 21.5829 242.334 21.9631C242.334 22.2902 242.106 22.6476 241.55 23.431L241.49 23.507ZM247.175 22.5411C245.79 22.5411 245.113 21.4916 245.113 20.4497C245.113 19.4153 245.783 18.3582 247.175 18.3582C248.909 18.3582 249.038 19.8717 249.038 19.8717H248.087C248.087 19.8717 247.981 19.1796 247.19 19.1796C246.482 19.1796 246.117 19.7804 246.117 20.4497C246.117 21.1189 246.482 21.7198 247.19 21.7198C247.981 21.7198 248.087 21.0277 248.087 21.0277H249.038C249.038 21.0277 248.909 22.5411 247.175 22.5411ZM251.898 22.5411C250.567 22.5411 249.83 21.5448 249.83 20.4497C249.83 19.3545 250.567 18.3582 251.898 18.3582C253.229 18.3582 253.967 19.3545 253.967 20.4497C253.967 21.5448 253.229 22.5411 251.898 22.5411ZM251.898 21.6969C252.575 21.6969 252.948 21.1113 252.948 20.4497C252.948 19.788 252.575 19.2024 251.898 19.2024C251.229 19.2024 250.849 19.788 250.849 20.4497C250.849 21.1113 251.229 21.6969 251.898 21.6969ZM256.479 22.5411C254.852 22.5411 254.738 21.2102 254.738 21.2102H255.696C255.696 21.2102 255.78 21.7654 256.517 21.7654C256.958 21.7654 257.133 21.5372 257.133 21.3091C257.133 21.0809 256.958 20.9516 256.639 20.8832L256.084 20.7691C255.415 20.6322 254.806 20.3356 254.806 19.6055C254.806 18.8906 255.392 18.3582 256.335 18.3582C257.826 18.3582 257.955 19.5827 257.955 19.5827H257.027C257.027 19.5827 256.943 19.1111 256.32 19.1111C255.901 19.1111 255.734 19.3317 255.734 19.537C255.734 19.7576 255.947 19.8717 256.251 19.9325L256.776 20.0466C257.521 20.2063 258.061 20.5485 258.061 21.2558C258.061 21.9783 257.491 22.5411 256.479 22.5411ZM260.606 22.5411C259.503 22.5411 259.244 21.8186 259.244 21.2026V19.248H258.552V18.4343H259.244V17.4304H260.256V18.4343H261.161V19.248H260.256V21.1798C260.256 21.5372 260.446 21.7198 260.864 21.7198C261.062 21.7198 261.26 21.6817 261.26 21.6817V22.4727C261.26 22.4727 260.956 22.5411 260.606 22.5411ZM263.173 22.4651H262.162L262.169 16.685H263.173V22.4651ZM264.469 23.9481C264.203 23.9481 264.02 23.9177 264.02 23.9177V23.0887C264.02 23.0887 264.195 23.1115 264.4 23.1115C264.918 23.1115 265.229 22.9746 265.473 22.5107L263.959 18.4343H264.986L265.99 21.3091L266.994 18.4343H268.021L266.545 22.3662C266.134 23.4386 265.556 23.9481 264.469 23.9481Z" fill="white"/>
<path d="M169.336 223.654C166.936 223.654 165.726 221.744 165.726 219.854C165.726 217.954 166.936 216.054 169.336 216.054C172.346 216.054 172.606 218.694 172.606 218.694H171.256C171.256 218.694 171.066 217.284 169.356 217.284C167.866 217.284 167.126 218.574 167.126 219.854C167.126 221.134 167.866 222.424 169.356 222.424C171.066 222.424 171.256 221.004 171.256 221.004H172.606C172.606 221.004 172.346 223.654 169.336 223.654ZM176.32 223.654C174.57 223.654 173.6 222.344 173.6 220.904C173.6 219.464 174.57 218.154 176.32 218.154C178.07 218.154 179.04 219.464 179.04 220.904C179.04 222.344 178.07 223.654 176.32 223.654ZM176.32 222.544C177.21 222.544 177.7 221.774 177.7 220.904C177.7 220.034 177.21 219.264 176.32 219.264C175.44 219.264 174.94 220.034 174.94 220.904C174.94 221.774 175.44 222.544 176.32 222.544ZM182.343 223.654C180.203 223.654 180.053 221.904 180.053 221.904H181.313C181.313 221.904 181.423 222.634 182.393 222.634C182.973 222.634 183.203 222.334 183.203 222.034C183.203 221.734 182.973 221.564 182.553 221.474L181.823 221.324C180.943 221.144 180.143 220.754 180.143 219.794C180.143 218.854 180.913 218.154 182.153 218.154C184.113 218.154 184.283 219.764 184.283 219.764H183.063C183.063 219.764 182.953 219.144 182.133 219.144C181.583 219.144 181.363 219.434 181.363 219.704C181.363 219.994 181.643 220.144 182.043 220.224L182.733 220.374C183.713 220.584 184.423 221.034 184.423 221.964C184.423 222.914 183.673 223.654 182.343 223.654ZM187.769 223.654C186.319 223.654 185.979 222.704 185.979 221.894V219.324H185.069V218.254H185.979V216.934H187.309V218.254H188.499V219.324H187.309V221.864C187.309 222.334 187.559 222.574 188.109 222.574C188.369 222.574 188.629 222.524 188.629 222.524V223.564C188.629 223.564 188.229 223.654 187.769 223.654Z" fill="white"/>
<path d="M18.6075 7.60855C18.437 7.43807 18.1606 7.43807 17.9901 7.60855L15.212 10.3867C15.0415 10.5572 15.0415 10.8336 15.212 11.0041C15.3825 11.1746 15.6589 11.1746 15.8294 11.0041L18.2988 8.5346L20.7683 11.0041C20.9388 11.1746 21.2152 11.1746 21.3857 11.0041C21.5561 10.8336 21.5561 10.5572 21.3857 10.3867L18.6075 7.60855ZM17.8623 7.91724V209.461H18.7354V7.91724H17.8623Z" fill="#683FFC"/>
<path d="M369.556 209.351C369.726 209.181 369.726 208.904 369.556 208.734L366.778 205.956C366.607 205.785 366.331 205.785 366.16 205.956C365.99 206.126 365.99 206.403 366.16 206.573L368.63 209.042L366.16 211.512C365.99 211.682 365.99 211.959 366.16 212.129C366.331 212.3 366.607 212.3 366.778 212.129L369.556 209.351ZM369.247 208.606L18.2859 208.606V209.479L369.247 209.479V208.606Z" fill="#683FFC"/>
<g opacity="0.67">
<path d="M226.031 43.0249C226.031 38.6066 229.613 35.0249 234.031 35.0249H280.781C285.199 35.0249 288.781 38.6066 288.781 43.0249V209.393H226.031V43.0249Z" fill="url(#paint4_radial_5170_7126)" fill-opacity="0.4"/>
<path d="M225.546 43.0249C225.546 38.3401 229.344 34.5423 234.029 34.5423H280.781C285.466 34.5423 289.264 38.3401 289.264 43.0249H288.298C288.298 38.8732 284.933 35.5075 280.781 35.5075H234.031C229.881 35.5075 226.516 38.8732 226.516 43.0249H225.546ZM289.264 209.875H225.546L226.516 208.91H288.298L289.264 209.875ZM225.546 209.875V43.0249C225.546 38.3401 229.344 34.5423 234.029 34.5423L234.031 35.5075C229.881 35.5075 226.516 38.8732 226.516 43.0249V208.91L225.546 209.875ZM280.781 34.5423C285.466 34.5423 289.264 38.3401 289.264 43.0249V209.875L288.298 208.91V43.0249C288.298 38.8732 284.933 35.5075 280.781 35.5075V34.5423Z" fill="#683FFC"/>
</g>
<g opacity="0.8" filter="url(#filter0_b_5170_7126)">
<path d="M257.926 47.5707C257.929 47.5707 257.932 47.5725 257.933 47.5753L260.44 52.657C260.592 52.9647 260.884 53.1775 261.222 53.2262L266.837 54.0414C267.691 54.1645 268.032 55.2131 267.414 55.8155L263.35 59.7764C263.104 60.0149 262.994 60.3584 263.05 60.6968L264.009 66.2882C264.155 67.1368 263.263 67.7854 262.499 67.3855L257.477 64.7449C257.174 64.5859 256.813 64.5859 256.508 64.7449L251.485 67.3855C250.722 67.7854 249.832 67.1394 249.975 66.2882L250.934 60.6968C250.993 60.3584 250.88 60.0149 250.634 59.7764L246.571 55.8155C245.953 55.2131 246.294 54.1645 247.148 54.0414L252.762 53.2262C253.101 53.1775 253.393 52.9647 253.544 52.657L256.054 47.5707C256.435 46.798 257.534 46.7964 257.918 47.566C257.919 47.5688 257.922 47.5707 257.926 47.5707V47.5707Z" fill="url(#paint5_radial_5170_7126)" fill-opacity="0.4"/>
<path d="M261.222 53.2262L266.837 54.0414M261.222 53.2262C260.884 53.1775 260.592 52.9647 260.44 52.657L257.933 47.5753C257.932 47.5725 257.929 47.5707 257.926 47.5707C257.922 47.5707 257.919 47.5688 257.918 47.566C257.534 46.7964 256.435 46.798 256.054 47.5707M261.222 53.2262L261.204 53.353L261.204 53.3531M261.222 53.2262L261.204 53.3531M266.837 54.0414L253.659 52.7136L256.169 47.6274L256.054 47.5707M266.837 54.0414C267.691 54.1645 268.032 55.2131 267.414 55.8155L263.35 59.7764L266.837 54.0414ZM256.054 47.5707L256.169 47.6274C256.503 46.9498 257.467 46.9484 257.803 47.6233C257.811 47.6382 257.821 47.6516 257.833 47.6628M256.054 47.5707L257.833 47.6628M257.833 47.6628L260.325 52.7136L257.833 47.6628ZM261.204 53.3531L266.819 54.1683L266.819 54.1683C267.567 54.2762 267.866 55.1954 267.324 55.7237M261.204 53.3531L267.324 55.7237M267.324 55.7237C267.324 55.7237 267.324 55.7237 267.324 55.7238L263.261 59.6844C263.261 59.6844 263.261 59.6844 263.261 59.6845C262.984 59.9527 262.861 60.3388 262.924 60.7179L262.924 60.7185L263.883 66.3099L263.883 66.31C264.011 67.0535 263.229 67.6227 262.559 67.2721C262.559 67.272 262.559 67.272 262.559 67.2719L257.537 64.6314L257.536 64.6314C257.196 64.4528 256.791 64.453 256.449 64.6312L256.448 64.6314L251.426 67.2719C251.426 67.272 251.426 67.272 251.426 67.272C250.756 67.6226 249.976 67.0564 250.102 66.3096C250.102 66.3096 250.102 66.3096 250.102 66.3096L251.061 60.7188C251.061 60.7187 251.061 60.7187 251.061 60.7186C251.127 60.3382 251 59.9522 250.724 59.6845C250.724 59.6844 250.724 59.6844 250.724 59.6844L246.66 55.7238C246.118 55.1954 246.418 54.2762 247.166 54.1683L247.166 54.1683L252.78 53.3531L252.781 53.353L252.762 53.2262L267.324 55.7237Z" stroke="url(#paint6_linear_5170_7126)" stroke-width="0.25637"/>
</g>
<path d="M48.9893 98.312C48.9893 93.8937 52.571 90.312 56.9893 90.312H105.484C109.903 90.312 113.484 93.8937 113.484 98.312V209.55H48.9893V98.312Z" fill="url(#paint7_radial_5170_7126)" fill-opacity="0.4"/>
<path d="M48.5043 98.312C48.5043 93.6272 52.3021 89.8294 56.9869 89.8294H105.484C110.169 89.8294 113.967 93.6272 113.967 98.312H113.002C113.002 94.1603 109.636 90.7946 105.484 90.7946H56.9893C52.8388 90.7946 49.4743 94.1603 49.4743 98.312H48.5043ZM113.967 210.032H48.5043L49.4743 209.067H113.002L113.967 210.032ZM48.5043 210.032V98.312C48.5043 93.6272 52.3021 89.8294 56.9869 89.8294L56.9893 90.7946C52.8388 90.7946 49.4743 94.1603 49.4743 98.312V209.067L48.5043 210.032ZM105.484 89.8294C110.169 89.8294 113.967 93.6272 113.967 98.312V210.032L113.002 209.067V98.312C113.002 94.1603 109.636 90.7946 105.484 90.7946V89.8294Z" fill="#683FFC"/>
<path style="mix-blend-mode:screen" d="M49.9125 203.097C42.933 204.611 37.1989 196.035 37.1072 183.943C37.0152 171.85 42.6008 160.82 49.5792 159.306C56.5565 157.794 62.2903 166.368 62.3845 178.46C62.4736 190.553 56.891 201.583 49.911 203.096L49.9125 203.097Z" fill="url(#paint8_radial_5170_7126)"/>
<path style="mix-blend-mode:color-dodge" d="M48.6122 195.595C44.1999 196.552 40.5765 191.133 40.5175 183.49C40.4596 175.846 43.9907 168.875 48.4007 167.919C52.8127 166.961 56.4353 172.382 56.4954 180.024C56.5544 187.667 53.0234 194.639 48.6133 195.595L48.6122 195.595Z" fill="url(#paint9_radial_5170_7126)"/>
<path style="mix-blend-mode:screen" d="M49.9126 203.097C48.4442 203.416 47.1773 193.871 47.0842 181.779C46.9921 169.686 48.1105 159.625 49.5793 159.306C51.0469 158.989 52.3131 168.531 52.4077 180.624C52.5005 192.716 51.3814 202.778 49.9126 203.097Z" fill="url(#paint10_radial_5170_7126)"/>
<path style="mix-blend-mode:color-dodge" d="M49.852 195.039C48.9211 195.242 48.1233 189.209 48.0643 181.566C48.0042 173.923 48.7115 167.564 49.6405 167.363C50.5688 167.161 51.3706 173.194 51.4267 180.837C51.4845 188.48 50.7818 194.837 49.852 195.039Z" fill="url(#paint11_radial_5170_7126)"/>
<path d="M85.7363 194.84L85.7363 196.436L79.3763 196.436L79.3763 194.84L80.2883 194.84L80.2883 194.768C79.9523 194.576 79.2563 194.096 79.2563 192.992C79.2563 191.528 80.3723 190.844 81.6203 190.844L85.7363 190.844L85.7363 192.44L81.8363 192.44C81.1523 192.44 80.5763 192.812 80.5763 193.592C80.5763 194.492 81.3323 194.84 82.1003 194.84L85.7363 194.84ZM85.8563 186.333C85.8563 188.505 84.1883 189.501 82.5563 189.501C80.9483 189.501 79.2563 188.541 79.2563 186.393C79.2563 184.665 80.4203 183.465 82.5923 183.465L83.0003 183.465L83.0003 187.893C83.8763 187.833 84.5963 187.281 84.5963 186.333C84.5963 185.241 83.7323 184.989 83.7323 184.989L83.7323 183.513C83.7323 183.513 85.8563 183.861 85.8563 186.333ZM81.9563 187.893L81.9563 185.001C80.9603 185.049 80.4923 185.661 80.4923 186.405C80.4923 187.221 81.0443 187.809 81.9563 187.893ZM85.8563 178.96C85.8563 181.06 84.2843 182.224 82.5563 182.224C80.8283 182.224 79.2563 181.06 79.2563 178.96C79.2563 176.86 80.8283 175.696 82.5563 175.696C84.2843 175.696 85.8563 176.86 85.8563 178.96ZM84.5243 178.96C84.5243 177.892 83.6003 177.304 82.5563 177.304C81.5123 177.304 80.5883 177.892 80.5883 178.96C80.5883 180.016 81.5123 180.616 82.5563 180.616C83.6003 180.616 84.5243 180.016 84.5243 178.96ZM85.8563 173.135C85.8563 173.687 85.4243 174.071 84.9083 174.071C84.3923 174.071 83.9723 173.687 83.9723 173.135C83.9723 172.595 84.3923 172.187 84.9083 172.187C85.4363 172.187 85.8563 172.595 85.8563 173.135ZM85.8563 167.299C85.8563 169.399 84.2843 170.563 82.5563 170.563C80.8283 170.563 79.2563 169.399 79.2563 167.299C79.2563 165.199 80.8283 164.035 82.5563 164.035C84.2843 164.035 85.8563 165.199 85.8563 167.299ZM84.5243 167.299C84.5243 166.231 83.6003 165.643 82.5563 165.643C81.5123 165.643 80.5883 166.231 80.5883 167.299C80.5883 168.355 81.5123 168.955 82.5563 168.955C83.6003 168.955 84.5243 168.355 84.5243 167.299ZM85.7363 161.09L85.7363 162.686L79.3763 162.686L79.3763 161.09L80.2883 161.09L80.2883 161.018C79.9523 160.826 79.2563 160.346 79.2563 159.242C79.2563 157.778 80.3723 157.094 81.6203 157.094L85.7363 157.094L85.7363 158.69L81.8363 158.69C81.1523 158.69 80.5763 159.062 80.5763 159.842C80.5763 160.742 81.3323 161.09 82.1003 161.09L85.7363 161.09ZM85.8563 152.583C85.8563 154.755 84.1883 155.751 82.5563 155.751C80.9483 155.751 79.2563 154.791 79.2563 152.643C79.2563 150.915 80.4203 149.715 82.5923 149.715L83.0003 149.715L83.0003 154.143C83.8763 154.083 84.5963 153.531 84.5963 152.583C84.5963 151.491 83.7323 151.239 83.7323 151.239L83.7323 149.763C83.7323 149.763 85.8563 150.111 85.8563 152.583ZM81.9563 154.143L81.9563 151.251C80.9603 151.299 80.4923 151.911 80.4923 152.655C80.4923 153.471 81.0443 154.059 81.9563 154.143Z" fill="white"/>
<path d="M262.026 193.28C262.026 195.464 260.37 196.532 258.726 196.532C257.094 196.532 255.426 195.476 255.426 193.28C255.426 190.544 257.814 190.34 257.814 190.34L257.814 191.84C257.814 191.84 256.722 192.008 256.722 193.256C256.722 194.372 257.67 194.948 258.726 194.948C259.782 194.948 260.73 194.372 260.73 193.256C260.73 192.008 259.638 191.84 259.638 191.84L259.638 190.34C259.638 190.34 262.026 190.544 262.026 193.28ZM255.426 186.271C255.426 185.047 256.158 184.495 256.434 184.327L256.434 184.255L255.546 184.255L255.546 182.659L261.906 182.659L261.906 184.255L261.018 184.255L261.018 184.327C261.294 184.495 262.026 185.047 262.026 186.271C262.026 188.167 260.358 189.091 258.726 189.091C257.094 189.091 255.426 188.167 255.426 186.271ZM256.734 185.851C256.734 186.943 257.742 187.483 258.726 187.483C259.71 187.483 260.718 186.943 260.718 185.851C260.718 184.771 259.71 184.231 258.726 184.231C257.742 184.231 256.734 184.771 256.734 185.851ZM261.906 179.547L261.906 181.143L255.546 181.143L255.546 179.547L256.458 179.547L256.458 179.475C256.122 179.283 255.426 178.803 255.426 177.699C255.426 176.235 256.542 175.551 257.79 175.551L261.906 175.551L261.906 177.147L258.006 177.147C257.322 177.147 256.746 177.519 256.746 178.299C256.746 179.199 257.502 179.547 258.27 179.547L261.906 179.547ZM262.026 171.388C262.026 173.284 260.358 174.208 258.726 174.208C257.094 174.208 255.426 173.284 255.426 171.388C255.426 170.164 256.158 169.612 256.434 169.444L256.434 169.372L252.786 169.372L252.786 167.776L261.906 167.776L261.906 169.372L261.018 169.372L261.018 169.444C261.294 169.612 262.026 170.164 262.026 171.388ZM260.718 170.968C260.718 169.888 259.71 169.348 258.726 169.348C257.742 169.348 256.734 169.888 256.734 170.968C256.734 172.06 257.742 172.6 258.726 172.6C259.71 172.6 260.718 172.06 260.718 170.968ZM264.246 165.735C264.246 166.155 264.198 166.443 264.198 166.443L262.89 166.443C262.89 166.443 262.926 166.167 262.926 165.843C262.926 165.027 262.71 164.535 261.978 164.151L255.546 166.539L255.546 164.919L260.082 163.335L255.546 161.751L255.546 160.131L261.75 162.459C263.442 163.107 264.246 164.019 264.246 165.735ZM262.026 157.901C262.026 158.453 261.594 158.837 261.078 158.837C260.562 158.837 260.142 158.453 260.142 157.901C260.142 157.361 260.562 156.953 261.078 156.953C261.606 156.953 262.026 157.361 262.026 157.901ZM262.026 152.365C262.026 154.105 260.886 154.513 259.914 154.513L256.83 154.513L256.83 155.605L255.546 155.605L255.546 154.513L253.962 154.513L253.962 152.917L255.546 152.917L255.546 151.489L256.83 151.489L256.83 152.917L259.878 152.917C260.442 152.917 260.73 152.617 260.73 151.957C260.73 151.645 260.67 151.333 260.67 151.333L261.918 151.333C261.918 151.333 262.026 151.813 262.026 152.365ZM261.906 146.754L261.906 148.458L255.546 150.45L255.546 148.854L259.914 147.582L255.546 146.226L255.546 144.774L259.914 143.418L255.546 142.146L255.546 140.55L261.906 142.554L261.906 144.246L257.862 145.494L261.906 146.754ZM262.026 136.608C262.026 138.708 260.454 139.872 258.726 139.872C256.998 139.872 255.426 138.708 255.426 136.608C255.426 134.508 256.998 133.344 258.726 133.344C260.454 133.344 262.026 134.508 262.026 136.608ZM260.694 136.608C260.694 135.54 259.77 134.952 258.726 134.952C257.682 134.952 256.758 135.54 256.758 136.608C256.758 137.664 257.682 138.264 258.726 138.264C259.77 138.264 260.694 137.664 260.694 136.608Z" fill="white"/>
<defs>
<filter id="filter0_b_5170_7126" x="230.155" y="30.8899" width="53.6742" height="52.7169" filterUnits="userSpaceOnUse" color-interpolation-filters="sRGB">
<feFlood flood-opacity="0" result="BackgroundImageFix"/>
<feGaussianBlur in="BackgroundImageFix" stdDeviation="8.05002"/>
<feComposite in2="SourceAlpha" operator="in" result="effect1_backgroundBlur_5170_7126"/>
<feBlend mode="normal" in="SourceGraphic" in2="effect1_backgroundBlur_5170_7126" result="shape"/>
</filter>
<radialGradient id="paint0_radial_5170_7126" cx="0" cy="0" r="1" gradientUnits="userSpaceOnUse" gradientTransform="translate(290.066 83.359) rotate(91.4472) scale(56.6503 16.1709)">
<stop offset="0.09" stop-color="#AB3AD3"/>
<stop offset="0.17" stop-color="#9832CD"/>
<stop offset="0.31" stop-color="#6D21C2"/>
<stop offset="0.36" stop-color="#5A1BA1"/>
<stop offset="0.43" stop-color="#421476"/>
<stop offset="0.51" stop-color="#2E0D52"/>
<stop offset="0.59" stop-color="#1D0834"/>
<stop offset="0.67" stop-color="#10041D"/>
<stop offset="0.76" stop-color="#07020C"/>
<stop offset="0.86" stop-color="#010003"/>
<stop offset="0.99"/>
</radialGradient>
<radialGradient id="paint1_radial_5170_7126" cx="0" cy="0" r="1" gradientUnits="userSpaceOnUse" gradientTransform="translate(288.474 83.6154) rotate(91.4472) scale(35.8078 10.2214)">
<stop offset="0.05" stop-color="#ABABAB"/>
<stop offset="0.07" stop-color="#AAA3AC"/>
<stop offset="0.09" stop-color="#A88DB0"/>
<stop offset="0.12" stop-color="#A56AB6"/>
<stop offset="0.16" stop-color="#A13ABF"/>
<stop offset="0.18" stop-color="#9F17C6"/>
<stop offset="0.24" stop-color="#8112A1"/>
<stop offset="0.33" stop-color="#5F0D76"/>
<stop offset="0.42" stop-color="#410952"/>
<stop offset="0.52" stop-color="#290634"/>
<stop offset="0.62" stop-color="#17031D"/>
<stop offset="0.72" stop-color="#0A010C"/>
<stop offset="0.84" stop-color="#020003"/>
<stop offset="1"/>
</radialGradient>
<radialGradient id="paint2_radial_5170_7126" cx="0" cy="0" r="1" gradientUnits="userSpaceOnUse" gradientTransform="translate(288.051 82.7727) rotate(91.4472) scale(56.6616 3.38887)">
<stop offset="0.05" stop-color="#A6A6A6"/>
<stop offset="0.07" stop-color="#A6A09E"/>
<stop offset="0.11" stop-color="#A69288"/>
<stop offset="0.16" stop-color="#A77C65"/>
<stop offset="0.21" stop-color="#A95C35"/>
<stop offset="0.26" stop-color="#AB3A00"/>
<stop offset="0.3" stop-color="#AB2700"/>
<stop offset="0.31" stop-color="#AB2100"/>
<stop offset="0.33" stop-color="#A11F00"/>
<stop offset="0.41" stop-color="#761600"/>
<stop offset="0.49" stop-color="#520F00"/>
<stop offset="0.57" stop-color="#340A00"/>
<stop offset="0.66" stop-color="#1D0500"/>
<stop offset="0.75" stop-color="#0C0200"/>
<stop offset="0.86" stop-color="#030000"/>
<stop offset="0.99"/>
</radialGradient>
<radialGradient id="paint3_radial_5170_7126" cx="0" cy="0" r="1" gradientUnits="userSpaceOnUse" gradientTransform="translate(288.051 82.7726) rotate(91.4472) scale(35.8022 2.14129)">
<stop offset="0.18" stop-color="#7417B6"/>
<stop offset="0.22" stop-color="#6614A1"/>
<stop offset="0.31" stop-color="#4B0E76"/>
<stop offset="0.4" stop-color="#340A52"/>
<stop offset="0.5" stop-color="#210634"/>
<stop offset="0.6" stop-color="#12031D"/>
<stop offset="0.71" stop-color="#08010C"/>
<stop offset="0.84" stop-color="#010003"/>
<stop offset="1"/>
</radialGradient>
<radialGradient id="paint4_radial_5170_7126" cx="0" cy="0" r="1" gradientUnits="userSpaceOnUse" gradientTransform="translate(224.621 94.1827) scale(121.465 156.958)">
<stop offset="0.21" stop-color="#532BAE"/>
<stop offset="0.54" stop-color="#7029A9"/>
<stop offset="0.97" stop-color="#9A35D7"/>
</radialGradient>
<radialGradient id="paint5_radial_5170_7126" cx="0" cy="0" r="1" gradientUnits="userSpaceOnUse" gradientTransform="translate(266.839 67.3262) rotate(-135.106) scale(28.5266 36.2528)">
<stop offset="0.482844" stop-color="#4D256D"/>
<stop offset="1" stop-color="#1A1139" stop-opacity="0"/>
</radialGradient>
<linearGradient id="paint6_linear_5170_7126" x1="237.121" y1="55.4046" x2="251.358" y2="64.493" gradientUnits="userSpaceOnUse">
<stop stop-color="white" stop-opacity="0.1"/>
<stop offset="1" stop-color="white"/>
</linearGradient>
<radialGradient id="paint7_radial_5170_7126" cx="0" cy="0" r="1" gradientUnits="userSpaceOnUse" gradientTransform="translate(47.5398 130.766) scale(124.844 107.332)">
<stop offset="0.21" stop-color="#532BAE"/>
<stop offset="0.54" stop-color="#7029A9"/>
<stop offset="0.97" stop-color="#9A35D7"/>
</radialGradient>
<radialGradient id="paint8_radial_5170_7126" cx="0" cy="0" r="1" gradientUnits="userSpaceOnUse" gradientTransform="translate(50.6517 180.282) rotate(89.5565) scale(21.8595 12.6917)">
<stop offset="0.09" stop-color="#AB3AD3"/>
<stop offset="0.17" stop-color="#9832CD"/>
<stop offset="0.31" stop-color="#6D21C2"/>
<stop offset="0.36" stop-color="#5A1BA1"/>
<stop offset="0.43" stop-color="#421476"/>
<stop offset="0.51" stop-color="#2E0D52"/>
<stop offset="0.59" stop-color="#1D0834"/>
<stop offset="0.67" stop-color="#10041D"/>
<stop offset="0.76" stop-color="#07020C"/>
<stop offset="0.86" stop-color="#010003"/>
<stop offset="0.99"/>
</radialGradient>
<radialGradient id="paint9_radial_5170_7126" cx="0" cy="0" r="1" gradientUnits="userSpaceOnUse" gradientTransform="translate(49.4112 180.838) rotate(89.5565) scale(13.8171 8.02221)">
<stop offset="0.05" stop-color="#ABABAB"/>
<stop offset="0.07" stop-color="#AAA3AC"/>
<stop offset="0.09" stop-color="#A88DB0"/>
<stop offset="0.12" stop-color="#A56AB6"/>
<stop offset="0.16" stop-color="#A13ABF"/>
<stop offset="0.18" stop-color="#9F17C6"/>
<stop offset="0.24" stop-color="#8112A1"/>
<stop offset="0.33" stop-color="#5F0D76"/>
<stop offset="0.42" stop-color="#410952"/>
<stop offset="0.52" stop-color="#290634"/>
<stop offset="0.62" stop-color="#17031D"/>
<stop offset="0.72" stop-color="#0A010C"/>
<stop offset="0.84" stop-color="#020003"/>
<stop offset="1"/>
</radialGradient>
<radialGradient id="paint10_radial_5170_7126" cx="0" cy="0" r="1" gradientUnits="userSpaceOnUse" gradientTransform="translate(49.0616 180.64) rotate(89.5565) scale(21.8639 2.65973)">
<stop offset="0.05" stop-color="#A6A6A6"/>
<stop offset="0.07" stop-color="#A6A09E"/>
<stop offset="0.11" stop-color="#A69288"/>
<stop offset="0.16" stop-color="#A77C65"/>
<stop offset="0.21" stop-color="#A95C35"/>
<stop offset="0.26" stop-color="#AB3A00"/>
<stop offset="0.3" stop-color="#AB2700"/>
<stop offset="0.31" stop-color="#AB2100"/>
<stop offset="0.33" stop-color="#A11F00"/>
<stop offset="0.41" stop-color="#761600"/>
<stop offset="0.49" stop-color="#520F00"/>
<stop offset="0.57" stop-color="#340A00"/>
<stop offset="0.66" stop-color="#1D0500"/>
<stop offset="0.75" stop-color="#0C0200"/>
<stop offset="0.86" stop-color="#030000"/>
<stop offset="0.99"/>
</radialGradient>
<radialGradient id="paint11_radial_5170_7126" cx="0" cy="0" r="1" gradientUnits="userSpaceOnUse" gradientTransform="translate(49.0616 180.641) rotate(89.5565) scale(13.8149 1.68058)">
<stop offset="0.18" stop-color="#7417B6"/>
<stop offset="0.22" stop-color="#6614A1"/>
<stop offset="0.31" stop-color="#4B0E76"/>
<stop offset="0.4" stop-color="#340A52"/>
<stop offset="0.5" stop-color="#210634"/>
<stop offset="0.6" stop-color="#12031D"/>
<stop offset="0.71" stop-color="#08010C"/>
<stop offset="0.84" stop-color="#010003"/>
<stop offset="1"/>
</radialGradient>
</defs>
</svg>
